<mxfile host="app.diagrams.net" modified="2021-08-20T10:24:47.767Z" agent="5.0 (Windows NT 10.0; Win64; x64) AppleWebKit/537.36 (KHTML, like Gecko) Chrome/92.0.4515.131 Safari/537.36" etag="9zou7YG6D2hydgNJCn4C" version="14.9.7" type="github" pages="2">
  <diagram id="R2WVGFGamxX9kViIz_1q" name="Page-1">
    <mxGraphModel dx="2249" dy="762" grid="0" gridSize="10" guides="1" tooltips="1" connect="1" arrows="1" fold="1" page="1" pageScale="1" pageWidth="827" pageHeight="1169" math="0" shadow="0">
      <root>
        <mxCell id="0" />
        <mxCell id="1" parent="0" />
        <mxCell id="N5jcFCuIl8DCNRH2G3Mo-4" style="edgeStyle=orthogonalEdgeStyle;rounded=0;orthogonalLoop=1;jettySize=auto;html=1;exitX=1;exitY=0.5;exitDx=0;exitDy=0;entryX=0;entryY=0.5;entryDx=0;entryDy=0;" parent="1" source="N5jcFCuIl8DCNRH2G3Mo-1" target="N5jcFCuIl8DCNRH2G3Mo-2" edge="1">
          <mxGeometry relative="1" as="geometry" />
        </mxCell>
        <mxCell id="N5jcFCuIl8DCNRH2G3Mo-5" style="edgeStyle=orthogonalEdgeStyle;rounded=0;orthogonalLoop=1;jettySize=auto;html=1;exitX=1;exitY=0.5;exitDx=0;exitDy=0;entryX=0;entryY=0.5;entryDx=0;entryDy=0;" parent="1" source="N5jcFCuIl8DCNRH2G3Mo-1" target="N5jcFCuIl8DCNRH2G3Mo-3" edge="1">
          <mxGeometry relative="1" as="geometry" />
        </mxCell>
        <mxCell id="N5jcFCuIl8DCNRH2G3Mo-7" style="edgeStyle=orthogonalEdgeStyle;rounded=0;orthogonalLoop=1;jettySize=auto;html=1;exitX=1;exitY=0.5;exitDx=0;exitDy=0;entryX=0;entryY=0.5;entryDx=0;entryDy=0;" parent="1" source="N5jcFCuIl8DCNRH2G3Mo-1" target="N5jcFCuIl8DCNRH2G3Mo-6" edge="1">
          <mxGeometry relative="1" as="geometry" />
        </mxCell>
        <mxCell id="N5jcFCuIl8DCNRH2G3Mo-1" value="后台" style="rounded=0;whiteSpace=wrap;html=1;" parent="1" vertex="1">
          <mxGeometry x="18" y="300" width="120" height="60" as="geometry" />
        </mxCell>
        <mxCell id="N5jcFCuIl8DCNRH2G3Mo-16" style="edgeStyle=orthogonalEdgeStyle;rounded=0;orthogonalLoop=1;jettySize=auto;html=1;exitX=1;exitY=0.5;exitDx=0;exitDy=0;entryX=0;entryY=0.5;entryDx=0;entryDy=0;" parent="1" source="N5jcFCuIl8DCNRH2G3Mo-2" target="N5jcFCuIl8DCNRH2G3Mo-15" edge="1">
          <mxGeometry relative="1" as="geometry" />
        </mxCell>
        <mxCell id="N5jcFCuIl8DCNRH2G3Mo-18" style="edgeStyle=orthogonalEdgeStyle;rounded=0;orthogonalLoop=1;jettySize=auto;html=1;exitX=1;exitY=0.5;exitDx=0;exitDy=0;entryX=0;entryY=0.5;entryDx=0;entryDy=0;" parent="1" source="N5jcFCuIl8DCNRH2G3Mo-2" target="N5jcFCuIl8DCNRH2G3Mo-17" edge="1">
          <mxGeometry relative="1" as="geometry" />
        </mxCell>
        <mxCell id="N5jcFCuIl8DCNRH2G3Mo-2" value="主播房间" style="rounded=0;whiteSpace=wrap;html=1;" parent="1" vertex="1">
          <mxGeometry x="242" y="231" width="120" height="60" as="geometry" />
        </mxCell>
        <mxCell id="N5jcFCuIl8DCNRH2G3Mo-3" value="人体躯干" style="rounded=0;whiteSpace=wrap;html=1;" parent="1" vertex="1">
          <mxGeometry x="245" y="354" width="120" height="60" as="geometry" />
        </mxCell>
        <mxCell id="N5jcFCuIl8DCNRH2G3Mo-9" style="edgeStyle=orthogonalEdgeStyle;rounded=0;orthogonalLoop=1;jettySize=auto;html=1;exitX=1;exitY=0.5;exitDx=0;exitDy=0;" parent="1" source="N5jcFCuIl8DCNRH2G3Mo-6" edge="1">
          <mxGeometry relative="1" as="geometry">
            <mxPoint x="431" y="519" as="targetPoint" />
          </mxGeometry>
        </mxCell>
        <mxCell id="N5jcFCuIl8DCNRH2G3Mo-14" style="edgeStyle=orthogonalEdgeStyle;rounded=0;orthogonalLoop=1;jettySize=auto;html=1;exitX=1;exitY=0.5;exitDx=0;exitDy=0;entryX=0;entryY=0.5;entryDx=0;entryDy=0;" parent="1" source="N5jcFCuIl8DCNRH2G3Mo-6" target="N5jcFCuIl8DCNRH2G3Mo-13" edge="1">
          <mxGeometry relative="1" as="geometry" />
        </mxCell>
        <mxCell id="N5jcFCuIl8DCNRH2G3Mo-6" value="人脸" style="rounded=0;whiteSpace=wrap;html=1;" parent="1" vertex="1">
          <mxGeometry x="245" y="489" width="120" height="60" as="geometry" />
        </mxCell>
        <mxCell id="N5jcFCuIl8DCNRH2G3Mo-29" style="edgeStyle=orthogonalEdgeStyle;rounded=0;orthogonalLoop=1;jettySize=auto;html=1;exitX=1;exitY=0.5;exitDx=0;exitDy=0;entryX=0;entryY=0.5;entryDx=0;entryDy=0;" parent="1" source="N5jcFCuIl8DCNRH2G3Mo-8" target="N5jcFCuIl8DCNRH2G3Mo-25" edge="1">
          <mxGeometry relative="1" as="geometry" />
        </mxCell>
        <mxCell id="N5jcFCuIl8DCNRH2G3Mo-8" value="五官数据" style="rounded=0;whiteSpace=wrap;html=1;" parent="1" vertex="1">
          <mxGeometry x="432" y="489" width="120" height="60" as="geometry" />
        </mxCell>
        <mxCell id="N5jcFCuIl8DCNRH2G3Mo-12" style="edgeStyle=orthogonalEdgeStyle;rounded=0;orthogonalLoop=1;jettySize=auto;html=1;exitX=1;exitY=0.5;exitDx=0;exitDy=0;entryX=0;entryY=0.5;entryDx=0;entryDy=0;" parent="1" source="N5jcFCuIl8DCNRH2G3Mo-10" target="N5jcFCuIl8DCNRH2G3Mo-1" edge="1">
          <mxGeometry relative="1" as="geometry" />
        </mxCell>
        <mxCell id="N5jcFCuIl8DCNRH2G3Mo-10" value="主播" style="rounded=0;whiteSpace=wrap;html=1;" parent="1" vertex="1">
          <mxGeometry x="-187" y="300" width="120" height="60" as="geometry" />
        </mxCell>
        <mxCell id="N5jcFCuIl8DCNRH2G3Mo-31" style="edgeStyle=orthogonalEdgeStyle;rounded=0;orthogonalLoop=1;jettySize=auto;html=1;exitX=1;exitY=0.5;exitDx=0;exitDy=0;entryX=0;entryY=0.5;entryDx=0;entryDy=0;" parent="1" source="N5jcFCuIl8DCNRH2G3Mo-13" target="N5jcFCuIl8DCNRH2G3Mo-25" edge="1">
          <mxGeometry relative="1" as="geometry" />
        </mxCell>
        <mxCell id="N5jcFCuIl8DCNRH2G3Mo-13" value="人脸背景" style="rounded=0;whiteSpace=wrap;html=1;" parent="1" vertex="1">
          <mxGeometry x="434" y="593" width="120" height="60" as="geometry" />
        </mxCell>
        <mxCell id="N5jcFCuIl8DCNRH2G3Mo-26" style="edgeStyle=orthogonalEdgeStyle;rounded=0;orthogonalLoop=1;jettySize=auto;html=1;exitX=1;exitY=0.5;exitDx=0;exitDy=0;entryX=0;entryY=0.5;entryDx=0;entryDy=0;" parent="1" source="N5jcFCuIl8DCNRH2G3Mo-15" target="N5jcFCuIl8DCNRH2G3Mo-25" edge="1">
          <mxGeometry relative="1" as="geometry" />
        </mxCell>
        <mxCell id="N5jcFCuIl8DCNRH2G3Mo-15" value="房间背景" style="rounded=0;whiteSpace=wrap;html=1;" parent="1" vertex="1">
          <mxGeometry x="434" y="169" width="120" height="60" as="geometry" />
        </mxCell>
        <mxCell id="N5jcFCuIl8DCNRH2G3Mo-28" style="edgeStyle=orthogonalEdgeStyle;rounded=0;orthogonalLoop=1;jettySize=auto;html=1;exitX=1;exitY=0.5;exitDx=0;exitDy=0;entryX=0;entryY=0.5;entryDx=0;entryDy=0;" parent="1" source="N5jcFCuIl8DCNRH2G3Mo-17" target="N5jcFCuIl8DCNRH2G3Mo-25" edge="1">
          <mxGeometry relative="1" as="geometry" />
        </mxCell>
        <mxCell id="N5jcFCuIl8DCNRH2G3Mo-17" value="多物体切割" style="rounded=0;whiteSpace=wrap;html=1;" parent="1" vertex="1">
          <mxGeometry x="434" y="261" width="120" height="60" as="geometry" />
        </mxCell>
        <mxCell id="N5jcFCuIl8DCNRH2G3Mo-19" value="GAN" style="text;html=1;strokeColor=none;fillColor=none;align=center;verticalAlign=middle;whiteSpace=wrap;rounded=0;" parent="1" vertex="1">
          <mxGeometry x="384" y="177" width="40" height="20" as="geometry" />
        </mxCell>
        <mxCell id="N5jcFCuIl8DCNRH2G3Mo-20" value="GAN" style="text;html=1;strokeColor=none;fillColor=none;align=center;verticalAlign=middle;whiteSpace=wrap;rounded=0;" parent="1" vertex="1">
          <mxGeometry x="374" y="631" width="40" height="20" as="geometry" />
        </mxCell>
        <mxCell id="N5jcFCuIl8DCNRH2G3Mo-22" value="切割" style="text;html=1;strokeColor=none;fillColor=none;align=center;verticalAlign=middle;whiteSpace=wrap;rounded=0;" parent="1" vertex="1">
          <mxGeometry x="381" y="301" width="40" height="20" as="geometry" />
        </mxCell>
        <mxCell id="N5jcFCuIl8DCNRH2G3Mo-23" value="切割" style="text;html=1;strokeColor=none;fillColor=none;align=center;verticalAlign=middle;whiteSpace=wrap;rounded=0;" parent="1" vertex="1">
          <mxGeometry x="381" y="498" width="40" height="20" as="geometry" />
        </mxCell>
        <mxCell id="N5jcFCuIl8DCNRH2G3Mo-24" value="切割" style="text;html=1;strokeColor=none;fillColor=none;align=center;verticalAlign=middle;whiteSpace=wrap;rounded=0;" parent="1" vertex="1">
          <mxGeometry x="193" y="419" width="40" height="20" as="geometry" />
        </mxCell>
        <mxCell id="N5jcFCuIl8DCNRH2G3Mo-35" style="edgeStyle=orthogonalEdgeStyle;rounded=0;orthogonalLoop=1;jettySize=auto;html=1;exitX=1;exitY=0.5;exitDx=0;exitDy=0;entryX=0;entryY=0.5;entryDx=0;entryDy=0;" parent="1" source="N5jcFCuIl8DCNRH2G3Mo-25" target="N5jcFCuIl8DCNRH2G3Mo-32" edge="1">
          <mxGeometry relative="1" as="geometry" />
        </mxCell>
        <mxCell id="N5jcFCuIl8DCNRH2G3Mo-25" value="用户端" style="rounded=0;whiteSpace=wrap;html=1;" parent="1" vertex="1">
          <mxGeometry x="626" y="372" width="120" height="60" as="geometry" />
        </mxCell>
        <mxCell id="N5jcFCuIl8DCNRH2G3Mo-32" value="画面" style="rounded=0;whiteSpace=wrap;html=1;" parent="1" vertex="1">
          <mxGeometry x="844" y="372" width="120" height="60" as="geometry" />
        </mxCell>
        <mxCell id="N5jcFCuIl8DCNRH2G3Mo-36" style="edgeStyle=orthogonalEdgeStyle;rounded=0;orthogonalLoop=1;jettySize=auto;html=1;exitX=0.5;exitY=1;exitDx=0;exitDy=0;" parent="1" source="N5jcFCuIl8DCNRH2G3Mo-33" edge="1">
          <mxGeometry relative="1" as="geometry">
            <mxPoint x="800" y="403" as="targetPoint" />
          </mxGeometry>
        </mxCell>
        <mxCell id="N5jcFCuIl8DCNRH2G3Mo-33" value="陀螺仪" style="rounded=0;whiteSpace=wrap;html=1;" parent="1" vertex="1">
          <mxGeometry x="740" y="191" width="120" height="60" as="geometry" />
        </mxCell>
        <mxCell id="N5jcFCuIl8DCNRH2G3Mo-37" style="edgeStyle=orthogonalEdgeStyle;rounded=0;orthogonalLoop=1;jettySize=auto;html=1;exitX=0.5;exitY=0;exitDx=0;exitDy=0;" parent="1" source="N5jcFCuIl8DCNRH2G3Mo-34" edge="1">
          <mxGeometry relative="1" as="geometry">
            <mxPoint x="803" y="404" as="targetPoint" />
          </mxGeometry>
        </mxCell>
        <mxCell id="N5jcFCuIl8DCNRH2G3Mo-34" value="重力感应" style="rounded=0;whiteSpace=wrap;html=1;" parent="1" vertex="1">
          <mxGeometry x="743" y="569" width="120" height="60" as="geometry" />
        </mxCell>
        <mxCell id="N5jcFCuIl8DCNRH2G3Mo-38" value="组装" style="text;html=1;strokeColor=none;fillColor=none;align=center;verticalAlign=middle;whiteSpace=wrap;rounded=0;" parent="1" vertex="1">
          <mxGeometry x="760" y="417" width="40" height="20" as="geometry" />
        </mxCell>
      </root>
    </mxGraphModel>
  </diagram>
  <diagram id="RtloHxu2FH773wAq_18q" name="Page-2">
    <mxGraphModel dx="1422" dy="762" grid="0" gridSize="10" guides="1" tooltips="1" connect="1" arrows="1" fold="1" page="1" pageScale="1" pageWidth="827" pageHeight="1169" math="0" shadow="0">
      <root>
        <mxCell id="kknUNHCXnfdg9PXnIx2o-0" />
        <mxCell id="kknUNHCXnfdg9PXnIx2o-1" parent="kknUNHCXnfdg9PXnIx2o-0" />
        <mxCell id="kknUNHCXnfdg9PXnIx2o-6" style="edgeStyle=orthogonalEdgeStyle;rounded=0;orthogonalLoop=1;jettySize=auto;html=1;exitX=1;exitY=0.5;exitDx=0;exitDy=0;" edge="1" parent="kknUNHCXnfdg9PXnIx2o-1" source="kknUNHCXnfdg9PXnIx2o-2" target="kknUNHCXnfdg9PXnIx2o-4">
          <mxGeometry relative="1" as="geometry" />
        </mxCell>
        <mxCell id="kknUNHCXnfdg9PXnIx2o-2" value="重力仪" style="rounded=1;whiteSpace=wrap;html=1;" vertex="1" parent="kknUNHCXnfdg9PXnIx2o-1">
          <mxGeometry x="129" y="128" width="120" height="60" as="geometry" />
        </mxCell>
        <mxCell id="kknUNHCXnfdg9PXnIx2o-7" style="edgeStyle=orthogonalEdgeStyle;rounded=0;orthogonalLoop=1;jettySize=auto;html=1;exitX=1;exitY=0.5;exitDx=0;exitDy=0;entryX=0.5;entryY=1;entryDx=0;entryDy=0;" edge="1" parent="kknUNHCXnfdg9PXnIx2o-1" source="kknUNHCXnfdg9PXnIx2o-3" target="kknUNHCXnfdg9PXnIx2o-4">
          <mxGeometry relative="1" as="geometry" />
        </mxCell>
        <mxCell id="kknUNHCXnfdg9PXnIx2o-3" value="陀螺仪" style="rounded=1;whiteSpace=wrap;html=1;" vertex="1" parent="kknUNHCXnfdg9PXnIx2o-1">
          <mxGeometry x="129" y="261" width="120" height="60" as="geometry" />
        </mxCell>
        <mxCell id="kknUNHCXnfdg9PXnIx2o-8" style="edgeStyle=orthogonalEdgeStyle;rounded=0;orthogonalLoop=1;jettySize=auto;html=1;exitX=1;exitY=0.5;exitDx=0;exitDy=0;" edge="1" parent="kknUNHCXnfdg9PXnIx2o-1" source="kknUNHCXnfdg9PXnIx2o-4" target="kknUNHCXnfdg9PXnIx2o-5">
          <mxGeometry relative="1" as="geometry" />
        </mxCell>
        <mxCell id="kknUNHCXnfdg9PXnIx2o-4" value="人脸五官&lt;br&gt;切割的五官切图" style="rounded=1;whiteSpace=wrap;html=1;" vertex="1" parent="kknUNHCXnfdg9PXnIx2o-1">
          <mxGeometry x="373" y="198" width="120" height="60" as="geometry" />
        </mxCell>
        <mxCell id="kknUNHCXnfdg9PXnIx2o-5" value="观众" style="rounded=1;whiteSpace=wrap;html=1;" vertex="1" parent="kknUNHCXnfdg9PXnIx2o-1">
          <mxGeometry x="619" y="198" width="120" height="60" as="geometry" />
        </mxCell>
        <mxCell id="kknUNHCXnfdg9PXnIx2o-9" value="3d位置调整" style="text;html=1;strokeColor=none;fillColor=none;align=center;verticalAlign=middle;whiteSpace=wrap;rounded=0;" vertex="1" parent="kknUNHCXnfdg9PXnIx2o-1">
          <mxGeometry x="520" y="204" width="66" height="20" as="geometry" />
        </mxCell>
        <mxCell id="kknUNHCXnfdg9PXnIx2o-10" value="变化速度" style="text;html=1;strokeColor=none;fillColor=none;align=center;verticalAlign=middle;whiteSpace=wrap;rounded=0;" vertex="1" parent="kknUNHCXnfdg9PXnIx2o-1">
          <mxGeometry x="317" y="135" width="66" height="20" as="geometry" />
        </mxCell>
        <mxCell id="kknUNHCXnfdg9PXnIx2o-11" value="手机方向和加速度" style="text;html=1;strokeColor=none;fillColor=none;align=center;verticalAlign=middle;whiteSpace=wrap;rounded=0;" vertex="1" parent="kknUNHCXnfdg9PXnIx2o-1">
          <mxGeometry x="287" y="269" width="109" height="20" as="geometry" />
        </mxCell>
      </root>
    </mxGraphModel>
  </diagram>
</mxfile>
